<svg xmlns="http://www.w3.org/2000/svg" viewBox="0 0 382 382"><defs><style>.cls-1{fill:#0077b7;}</style></defs><title>Asset 1</title><g id="Layer_2" data-name="Layer 2"><g id="Layer_1-2" data-name="Layer 1"><path class="cls-1" d="M347.45,0H34.56A34.56,34.56,0,0,0,0,34.56V347.44A34.56,34.56,0,0,0,34.56,382H347.44A34.56,34.56,0,0,0,382,347.44V34.56A34.56,34.56,0,0,0,347.45,0ZM118.21,329.84a10.06,10.06,0,0,1-10.06,10.06H65.35a10.06,10.06,0,0,1-10.06-10.06V150.4a10.06,10.06,0,0,1,10.06-10.06h42.81a10.06,10.06,0,0,1,10.06,10.06ZM86.75,123.43a40.67,40.67,0,1,1,40.67-40.67A40.67,40.67,0,0,1,86.75,123.43ZM341.91,330.65a9.25,9.25,0,0,1-9.25,9.25H286.73a9.25,9.25,0,0,1-9.25-9.25V246.49c0-12.56,3.68-55-32.81-55-28.31,0-34.05,29.07-35.2,42.11v97.08a9.25,9.25,0,0,1-9.25,9.25H155.8a9.25,9.25,0,0,1-9.25-9.25V149.59a9.25,9.25,0,0,1,9.25-9.25h44.43a9.25,9.25,0,0,1,9.25,9.25v15.65c10.5-15.75,26.1-27.91,59.31-27.91,73.55,0,73.13,68.72,73.13,106.47v86.85Z"/></g></g></svg>