<?xml version="1.0" encoding="utf-8"?>
<!-- Generator: Adobe Illustrator 21.0.0, SVG Export Plug-In . SVG Version: 6.00 Build 0)  -->
<svg version="1.1" id="Layer_1" xmlns="http://www.w3.org/2000/svg" xmlns:xlink="http://www.w3.org/1999/xlink" x="0px" y="0px"
	 viewBox="0 0 739 733" style="enable-background:new 0 0 739 733;" xml:space="preserve">
<style type="text/css">
	.st0{fill:#3BD0D6;}
</style>
<path class="st0" d="M43.5,702.1c-0.5,0.7-1.5,0.9-2.3,0.4c-0.1-0.1-0.3-0.2-0.4-0.4l-4-4c-0.7-0.5-0.9-1.5-0.4-2.3
	c0.1-0.1,0.2-0.3,0.4-0.4l4-4c0.5-0.7,1.5-0.9,2.3-0.4c0.1,0.1,0.3,0.2,0.4,0.4l4,4c0.7,0.5,0.9,1.5,0.4,2.3
	c-0.1,0.1-0.2,0.3-0.4,0.4L43.5,702.1z"/>
<path class="st0" d="M117.4,704.2c-1.2,1.2-2.5,1.2-3.7,0l-5.5-5.5c-1.2-1.2-1.2-2.5,0-3.7l5.5-5.5c1.2-1.2,2.5-1.2,3.7,0l5.5,5.5
	c1.2,1.2,1.2,2.5,0,3.7L117.4,704.2z"/>
<path class="st0" d="M191.2,706.3c-1.6,1.6-3.2,1.6-4.8,0l-7.1-7.1c-1.6-1.6-1.6-3.2,0-4.8l7.1-7.1c1.6-1.6,3.2-1.6,4.8,0l7.1,7.1
	c1.6,1.6,1.6,3.2,0,4.8L191.2,706.3z"/>
<path class="st0" d="M265.1,708.4c-1.9,1.9-3.9,1.9-5.8,0l-8.7-8.7c-1.9-1.9-1.9-3.9,0-5.8l8.7-8.7c1.9-1.9,3.9-1.9,5.8,0l8.7,8.7
	c1.9,1.9,1.9,3.9,0,5.8L265.1,708.4z"/>
<path class="st0" d="M339,710.6c-2.3,2.3-4.6,2.3-6.9,0l-10.3-10.3c-2.3-2.3-2.3-4.6,0-6.9l10.3-10.3c2.3-2.3,4.6-2.3,6.9,0
	l10.3,10.3c2.3,2.3,2.3,4.6,0,6.9L339,710.6z"/>
<path class="st0" d="M412.9,712.7c-2.6,2.6-5.3,2.6-7.9,0l-11.9-11.9c-2.6-2.6-2.6-5.3,0-7.9L405,681c2.6-2.6,5.3-2.6,7.9,0
	l11.9,11.9c2.6,2.7,2.6,5.3,0,7.9L412.9,712.7z"/>
<path class="st0" d="M486.7,714.8c-3,3-6,3-9,0l-13.5-13.5c-3-3-3-6,0-9l13.5-13.5c3-3,6-3,9,0l13.5,13.5c3,3,3,6,0,9L486.7,714.8z"
	/>
<path class="st0" d="M560.6,716.9c-3.3,3.3-6.7,3.3-10,0l-15.1-15.1c-3.3-3.3-3.3-6.7,0-10l15.1-15c3.3-3.3,6.7-3.3,10,0l15,15
	c3.3,3.3,3.3,6.7,0,10L560.6,716.9z"/>
<path class="st0" d="M634.5,719c-3.7,3.7-7.4,3.7-11.1,0l-16.6-16.6c-3.7-3.7-3.7-7.4,0-11.1l16.6-16.6c3.7-3.7,7.4-3.7,11.1,0
	l16.6,16.6c3.7,3.7,3.7,7.4,0,11.1L634.5,719z"/>
<path class="st0" d="M708.4,721.1c-4.1,4.1-8.1,4.1-12.1,0L678,702.9c-4-4-4-8.1,0-12.1l18.2-18.2c4-4,8.1-4,12.1,0l18.2,18.2
	c4,4.1,4,8.1,0,12.1L708.4,721.1z"/>
<path class="st0" d="M43.5,628.8c-0.5,0.7-1.5,0.9-2.3,0.4c-0.1-0.1-0.3-0.2-0.4-0.4l-4-4c-0.7-0.5-0.9-1.5-0.4-2.3
	c0.1-0.1,0.2-0.3,0.4-0.4l4-4c0.5-0.7,1.5-0.9,2.3-0.4c0.1,0.1,0.3,0.2,0.4,0.4l4,4c0.7,0.5,0.9,1.5,0.4,2.3
	c-0.1,0.1-0.2,0.3-0.4,0.4L43.5,628.8z"/>
<path class="st0" d="M117.4,630.9c-1.2,1.2-2.5,1.2-3.7,0l-5.5-5.5c-1.2-1.2-1.2-2.5,0-3.7l5.5-5.5c1.2-1.2,2.5-1.2,3.7,0l5.5,5.5
	c1.2,1.2,1.2,2.5,0,3.7L117.4,630.9z"/>
<path class="st0" d="M191.2,633c-1.6,1.6-3.2,1.6-4.8,0l-7.1-7.1c-1.6-1.6-1.6-3.2,0-4.8l7.1-7.1c1.6-1.6,3.2-1.6,4.8,0l7.1,7.1
	c1.6,1.6,1.6,3.2,0,4.8L191.2,633z"/>
<path class="st0" d="M265.1,635.1c-1.9,1.9-3.9,1.9-5.8,0l-8.7-8.7c-1.9-1.9-1.9-3.9,0-5.8l8.7-8.7c1.9-1.9,3.9-1.9,5.8,0l8.7,8.7
	c1.9,1.9,1.9,3.9,0,5.8L265.1,635.1z"/>
<path class="st0" d="M339,637.2c-2.3,2.3-4.6,2.3-6.9,0l-10.3-10.3c-2.3-2.3-2.3-4.6,0-6.9l10.3-10.3c2.3-2.3,4.6-2.3,6.9,0
	l10.3,10.3c2.3,2.3,2.3,4.6,0,6.9L339,637.2z"/>
<path class="st0" d="M412.9,639.3c-2.6,2.6-5.3,2.6-7.9,0l-11.9-11.9c-2.6-2.6-2.6-5.3,0-7.9l11.9-11.9c2.6-2.6,5.3-2.6,7.9,0
	l11.9,11.9c2.6,2.6,2.6,5.3,0,7.9L412.9,639.3z"/>
<path class="st0" d="M486.7,641.4c-3,3-6,3-9,0L464.3,628c-3-3-3-6,0-9l13.5-13.5c3-3,6-3,9,0l13.5,13.5c3,3,3,6,0,9L486.7,641.4z"
	/>
<path class="st0" d="M560.6,643.5c-3.3,3.3-6.7,3.3-10,0l-15.1-15c-3.3-3.3-3.3-6.7,0-10l15.1-15c3.3-3.3,6.7-3.3,10,0l15,15.1
	c3.3,3.3,3.3,6.7,0,10L560.6,643.5z"/>
<path class="st0" d="M634.5,645.7c-3.7,3.7-7.4,3.7-11.1,0L606.8,629c-3.7-3.7-3.7-7.4,0-11.1l16.6-16.6c3.7-3.7,7.4-3.7,11.1,0
	l16.6,16.6c3.7,3.7,3.7,7.4,0,11.1L634.5,645.7z"/>
<path class="st0" d="M708.4,647.8c-4.1,4.1-8.1,4.1-12.1,0L678,629.5c-4-4-4-8.1,0-12.1l18.2-18.2c4-4.1,8.1-4.1,12.1,0l18.2,18.2
	c4,4.1,4,8.1,0,12.1L708.4,647.8z"/>
<path class="st0" d="M117.4,557.5c-1.2,1.2-2.5,1.2-3.7,0l-5.5-5.5c-1.2-1.2-1.2-2.4,0-3.7l5.5-5.5c1.2-1.2,2.5-1.2,3.7,0l5.5,5.5
	c1.2,1.2,1.2,2.4,0,3.7L117.4,557.5z"/>
<path class="st0" d="M265.1,561.7c-1.9,1.9-3.9,1.9-5.8,0l-8.7-8.7c-1.9-1.9-1.9-3.9,0-5.8l8.7-8.7c1.9-1.9,3.9-1.9,5.8,0l8.7,8.7
	c1.9,1.9,1.9,3.9,0,5.8L265.1,561.7z"/>
<path class="st0" d="M339,563.9c-2.3,2.3-4.6,2.3-6.9,0l-10.3-10.3c-2.3-2.3-2.3-4.6,0-6.9l10.3-10.3c2.3-2.3,4.6-2.3,6.9,0
	l10.3,10.3c2.3,2.3,2.3,4.6,0,6.9L339,563.9z"/>
<path class="st0" d="M412.9,566c-2.6,2.7-5.3,2.7-7.9,0l-11.9-11.9c-2.6-2.6-2.6-5.3,0-7.9l11.9-11.9c2.6-2.6,5.3-2.6,7.9,0
	l11.9,11.9c2.6,2.6,2.6,5.3,0,7.9L412.9,566z"/>
<path class="st0" d="M486.7,568.1c-3,3-6,3-9,0l-13.5-13.5c-3-3-3-6,0-9l13.5-13.5c3-3,6-3,9,0l13.5,13.5c3,3,3,6,0,9L486.7,568.1z"
	/>
<path class="st0" d="M560.6,570.2c-3.3,3.3-6.7,3.3-10,0l-15.1-15c-3.3-3.3-3.3-6.7,0-10l15.1-15c3.3-3.3,6.7-3.3,10,0l15,15
	c3.3,3.4,3.3,6.7,0,10L560.6,570.2z"/>
<path class="st0" d="M708.4,574.4c-4.1,4-8.1,4-12.1,0L678,556.2c-4-4.1-4-8.1,0-12.1l18.2-18.2c4-4.1,8.1-4.1,12.1,0l18.2,18.2
	c4,4.1,4,8.1,0,12.1L708.4,574.4z"/>
<path class="st0" d="M43.5,482c-0.5,0.7-1.5,0.9-2.3,0.4c-0.1-0.1-0.3-0.2-0.4-0.4l-4-4c-0.7-0.5-0.9-1.5-0.4-2.3
	c0.1-0.1,0.2-0.3,0.4-0.4l4-4c0.5-0.7,1.5-0.9,2.3-0.4c0.1,0.1,0.3,0.2,0.4,0.4l4,4c0.7,0.5,0.9,1.5,0.4,2.3
	c-0.1,0.1-0.2,0.3-0.4,0.4L43.5,482z"/>
<path class="st0" d="M117.4,484.2c-1.2,1.2-2.5,1.2-3.7,0l-5.5-5.5c-1.2-1.2-1.2-2.5,0-3.7l5.5-5.5c1.2-1.2,2.5-1.2,3.7,0l5.5,5.5
	c1.2,1.2,1.2,2.5,0,3.7L117.4,484.2z"/>
<path class="st0" d="M191.2,486.3c-1.6,1.6-3.2,1.6-4.8,0l-7.1-7.1c-1.6-1.6-1.6-3.2,0-4.8l7.1-7.1c1.6-1.6,3.2-1.6,4.8,0l7.1,7.1
	c1.6,1.6,1.6,3.2,0,4.8L191.2,486.3z"/>
<path class="st0" d="M265.1,488.4c-1.9,1.9-3.9,1.9-5.8,0l-8.7-8.7c-1.9-1.9-1.9-3.9,0-5.8l8.7-8.7c1.9-1.9,3.9-1.9,5.8,0l8.7,8.7
	c1.9,1.9,1.9,3.9,0,5.8L265.1,488.4z"/>
<path class="st0" d="M339,490.5c-2.3,2.3-4.6,2.3-6.9,0l-10.3-10.3c-2.3-2.3-2.3-4.6,0-6.9l10.3-10.3c2.3-2.3,4.6-2.3,6.9,0
	l10.3,10.3c2.3,2.3,2.3,4.6,0,6.9L339,490.5z"/>
<path class="st0" d="M412.9,492.6c-2.6,2.6-5.3,2.6-7.9,0l-11.9-11.9c-2.6-2.6-2.6-5.3,0-7.9l11.9-11.9c2.6-2.6,5.3-2.6,7.9,0
	l11.9,11.9c2.6,2.6,2.6,5.3,0,7.9L412.9,492.6z"/>
<path class="st0" d="M486.7,494.7c-3,3-6,3-9,0l-13.5-13.5c-3-3-3-6,0-9l13.5-13.5c3-3,6-3,9,0l13.5,13.4c3,3,3,6,0,9L486.7,494.7z"
	/>
<path class="st0" d="M560.6,496.8c-3.3,3.3-6.7,3.3-10,0l-15.1-15.1c-3.3-3.3-3.3-6.7,0-10l15.1-15c3.3-3.4,6.7-3.4,10,0l15,15
	c3.3,3.3,3.3,6.7,0,10L560.6,496.8z"/>
<path class="st0" d="M634.5,499c-3.7,3.7-7.4,3.7-11.1,0l-16.6-16.6c-3.7-3.7-3.7-7.4,0-11.1l16.6-16.6c3.7-3.7,7.4-3.7,11.1,0
	l16.6,16.6c3.7,3.7,3.7,7.4,0,11.1L634.5,499z"/>
<path class="st0" d="M708.4,501.1c-4.1,4.1-8.1,4.1-12.1,0L678,482.9c-4-4.1-4-8.1,0-12.1l18.2-18.2c4-4.1,8.1-4.1,12.1,0l18.2,18.2
	c4,4,4,8.1,0,12.1L708.4,501.1z"/>
<path class="st0" d="M191.2,412.9c-1.6,1.6-3.2,1.6-4.8,0l-7.1-7.1c-1.6-1.6-1.6-3.2,0-4.8l7.1-7.1c1.6-1.6,3.2-1.6,4.8,0l7.1,7.1
	c1.6,1.6,1.6,3.2,0,4.8L191.2,412.9z"/>
<path class="st0" d="M339,417.2c-2.3,2.3-4.6,2.3-6.9,0l-10.3-10.3c-2.3-2.3-2.3-4.6,0-6.9l10.3-10.3c2.3-2.3,4.6-2.3,6.9,0
	l10.3,10.3c2.3,2.3,2.3,4.6,0,6.9L339,417.2z"/>
<path class="st0" d="M412.9,419.3c-2.6,2.6-5.3,2.6-7.9,0l-11.9-11.9c-2.6-2.6-2.6-5.3,0-7.9l11.9-11.9c2.6-2.6,5.3-2.6,7.9,0
	l11.9,11.9c2.6,2.6,2.6,5.3,0,7.9L412.9,419.3z"/>
<path class="st0" d="M486.7,421.4c-3,3-6,3-9,0l-13.5-13.5c-3-3-3-6,0-9l13.5-13.5c3-3,6-3,9,0l13.5,13.5c3,3,3,6,0,9L486.7,421.4z"
	/>
<path class="st0" d="M560.6,423.5c-3.3,3.4-6.7,3.4-10,0l-15.1-15c-3.3-3.3-3.3-6.7,0-10l15.1-15.1c3.3-3.3,6.7-3.3,10,0l15,15.1
	c3.3,3.3,3.3,6.7,0,10L560.6,423.5z"/>
<path class="st0" d="M708.4,427.7c-4.1,4-8.1,4-12.1,0L678,409.5c-4-4.1-4-8.1,0-12.1l18.2-18.2c4-4,8.1-4,12.1,0l18.2,18.2
	c4,4,4,8.1,0,12.1L708.4,427.7z"/>
<path class="st0" d="M191.2,339.6c-1.6,1.6-3.2,1.6-4.8,0l-7.1-7.1c-1.6-1.6-1.6-3.2,0-4.8l7.1-7.1c1.6-1.6,3.2-1.6,4.8,0l7.1,7.1
	c1.6,1.6,1.6,3.2,0,4.8L191.2,339.6z"/>
<path class="st0" d="M265.1,341.7c-1.9,1.9-3.9,1.9-5.8,0l-8.7-8.7c-1.9-1.9-1.9-3.9,0-5.8l8.7-8.7c1.9-1.9,3.9-1.9,5.8,0l8.7,8.7
	c1.9,1.9,1.9,3.9,0,5.8L265.1,341.7z"/>
<path class="st0" d="M339,343.8c-2.3,2.3-4.6,2.3-6.9,0l-10.3-10.3c-2.3-2.3-2.3-4.6,0-6.9l10.3-10.3c2.3-2.3,4.6-2.3,6.9,0
	l10.3,10.3c2.3,2.3,2.3,4.6,0,6.9L339,343.8z"/>
<path class="st0" d="M412.9,345.9c-2.6,2.7-5.3,2.7-7.9,0L393.1,334c-2.6-2.6-2.6-5.3,0-7.9l11.9-11.9c2.6-2.6,5.3-2.6,7.9,0
	l11.9,11.9c2.6,2.6,2.6,5.3,0,7.9L412.9,345.9z"/>
<path class="st0" d="M486.7,348c-3,3-6,3-9,0l-13.5-13.5c-3-3-3-6,0-9l13.5-13.5c3-3,6-3,9,0l13.5,13.5c3,3,3,6,0,9L486.7,348z"/>
<path class="st0" d="M560.6,350.1c-3.3,3.4-6.7,3.4-10,0l-15.1-15c-3.3-3.3-3.3-6.7,0-10l15.1-15c3.3-3.3,6.7-3.3,10,0l15,15
	c3.3,3.4,3.3,6.7,0,10L560.6,350.1z"/>
<path class="st0" d="M634.5,352.3c-3.7,3.7-7.4,3.7-11.1,0l-16.6-16.6c-3.7-3.7-3.7-7.4,0-11.1l16.6-16.6c3.7-3.7,7.4-3.7,11.1,0
	l16.6,16.6c3.7,3.7,3.7,7.4,0,11.1L634.5,352.3z"/>
<path class="st0" d="M708.4,354.4c-4.1,4-8.1,4-12.1,0L678,336.1c-4-4-4-8.1,0-12.1l18.2-18.2c4-4,8.1-4,12.1,0l18.2,18.2
	c4,4,4,8.1,0,12.1L708.4,354.4z"/>
<path class="st0" d="M191.2,266.2c-1.6,1.6-3.2,1.6-4.8,0l-7.1-7.1c-1.6-1.6-1.6-3.2,0-4.8l7.1-7.1c1.6-1.6,3.2-1.6,4.8,0l7.1,7.1
	c1.6,1.6,1.6,3.2,0,4.8L191.2,266.2z"/>
<path class="st0" d="M265.1,268.4c-1.9,1.9-3.9,1.9-5.8,0l-8.7-8.7c-1.9-1.9-1.9-3.9,0-5.8l8.7-8.7c1.9-1.9,3.9-1.9,5.8,0l8.7,8.7
	c1.9,1.9,1.9,3.9,0,5.8L265.1,268.4z"/>
<path class="st0" d="M339,270.5c-2.3,2.3-4.6,2.3-6.9,0l-10.3-10.3c-2.3-2.3-2.3-4.6,0-6.9l10.3-10.3c2.3-2.3,4.6-2.3,6.9,0
	l10.3,10.3c2.3,2.3,2.3,4.6,0,6.9L339,270.5z"/>
<path class="st0" d="M412.9,272.6c-2.6,2.6-5.3,2.6-7.9,0l-11.9-11.9c-2.6-2.6-2.6-5.3,0-7.9l11.9-11.9c2.6-2.6,5.3-2.6,7.9,0
	l11.9,11.9c2.6,2.6,2.6,5.3,0,7.9L412.9,272.6z"/>
<path class="st0" d="M486.7,274.7c-3,3-6,3-9,0l-13.5-13.5c-3-3-3-6,0-9l13.5-13.5c3-3,6-3,9,0l13.5,13.5c3,3,3,6,0,9L486.7,274.7z"
	/>
<path class="st0" d="M560.6,276.8c-3.3,3.3-6.7,3.3-10,0l-15.1-15.1c-3.3-3.3-3.3-6.7,0-10l15.1-15c3.3-3.3,6.7-3.3,10,0l15,15
	c3.3,3.3,3.3,6.7,0,10L560.6,276.8z"/>
<path class="st0" d="M634.5,278.9c-3.7,3.7-7.4,3.7-11.1,0l-16.6-16.6c-3.7-3.7-3.7-7.4,0-11.1l16.6-16.6c3.7-3.7,7.4-3.7,11.1,0
	l16.6,16.6c3.7,3.7,3.7,7.4,0,11.1L634.5,278.9z"/>
<path class="st0" d="M708.4,281c-4.1,4.1-8.1,4.1-12.1,0L678,262.8c-4-4.1-4-8.1,0-12.1l18.2-18.2c4-4,8.1-4,12.1,0l18.2,18.2
	c4,4.1,4,8.1,0,12.1L708.4,281z"/>
<path class="st0" d="M117.4,190.8c-1.2,1.2-2.5,1.2-3.7,0l-5.5-5.5c-1.2-1.2-1.2-2.5,0-3.7l5.5-5.5c1.2-1.2,2.5-1.2,3.7,0l5.5,5.5
	c1.2,1.2,1.2,2.5,0,3.7L117.4,190.8z"/>
<path class="st0" d="M486.7,201.3c-3,3-6,3-9,0l-13.5-13.4c-3-3-3-6,0-9l13.5-13.5c3-3,6-3,9,0l13.5,13.5c3,3,3,6,0,9L486.7,201.3z"
	/>
<path class="st0" d="M634.5,205.6c-3.7,3.7-7.4,3.7-11.1,0l-16.6-16.6c-3.7-3.7-3.7-7.4,0-11.1l16.6-16.6c3.7-3.7,7.4-3.7,11.1,0
	l16.6,16.6c3.7,3.7,3.7,7.4,0,11.1L634.5,205.6z"/>
<path class="st0" d="M708.4,207.7c-4.1,4.1-8.1,4.1-12.1,0L678,189.5c-4-4.1-4-8.1,0-12.1l18.2-18.2c4-4,8.1-4,12.1,0l18.2,18.2
	c4,4,4,8.1,0,12.1L708.4,207.7z"/>
<path class="st0" d="M708.4,134.3c-4.1,4-8.1,4-12.1,0L678,116.1c-4-4-4-8.1,0-12.1l18.2-18.2c4-4,8.1-4,12.1,0l18.2,18.2
	c4,4.1,4,8.1,0,12.1L708.4,134.3z"/>
<path class="st0" d="M708.4,61c-4.1,4.1-8.1,4.1-12.1,0L678,42.8c-4-4-4-8.1,0-12.1l18.2-18.2c4-4,8.1-4,12.1,0l18.2,18.2
	c4,4,4,8.1,0,12.1L708.4,61z"/>
<path class="st0" d="M10.7,733H0.3c0-0.1,0.1-0.3,0.2-0.4c0.1-0.1,0.2-0.2,0.3-0.3l3.5-3.5c0.5-0.6,1.4-0.8,2-0.3
	c0.1,0.1,0.2,0.2,0.3,0.3l3.5,3.5C10.4,732.5,10.6,732.7,10.7,733z"/>
<path class="st0" d="M86.7,733H71c0.1-0.4,0.4-0.8,0.8-1.3l5.3-5.3c1.2-1.2,2.3-1.2,3.5,0l5.3,5.3C86.3,732.2,86.6,732.6,86.7,733z"
	/>
<path class="st0" d="M162.7,733h-21c0.1-0.6,0.5-1.2,1.1-1.8l7-7c1.6-1.6,3.1-1.6,4.7,0l7,7C162.2,731.8,162.6,732.4,162.7,733z"/>
<path class="st0" d="M238.7,733h-26.3c0.1-0.8,0.6-1.6,1.4-2.5l8.8-8.8c2-2,3.9-2,5.9,0l8.8,8.8C238.1,731.4,238.5,732.2,238.7,733z
	"/>
<path class="st0" d="M314.7,733H283c0.1-1,0.7-2,1.7-3.1l10.6-10.6c2.3-2.3,4.7-2.3,7,0l10.6,10.6C314,731,314.6,732,314.7,733z"/>
<path class="st0" d="M390.7,733h-36.9c0.1-1.2,0.8-2.4,2-3.6l12.3-12.3c2.8-2.7,5.5-2.7,8.2,0l12.4,12.3
	C389.9,730.6,390.5,731.8,390.7,733z"/>
<path class="st0" d="M466.7,733h-42.2c0.1-1.4,0.9-2.8,2.3-4.2l14.1-14.1c3.1-3.1,6.3-3.1,9.4,0l14.1,14.1
	C465.7,730.2,466.5,731.6,466.7,733z"/>
<path class="st0" d="M542.7,733h-47.5c0.1-1.6,1-3.2,2.6-4.8l15.8-15.8c3.5-3.5,7-3.5,10.6,0l15.8,15.8
	C541.7,729.8,542.5,731.4,542.7,733z"/>
<path class="st0" d="M618.7,733h-52.8c0.2-1.8,1.1-3.6,2.9-5.4l17.6-17.6c3.9-3.9,7.8-3.9,11.7,0l17.6,17.6
	C617.5,729.4,618.5,731.2,618.7,733z"/>
<path class="st0" d="M694.7,733h-58.1c0.1-2,1.2-4,3.2-5.9l19.4-19.4c4.3-4.3,8.6-4.3,12.9,0l19.4,19.4
	C693.4,729,694.5,731,694.7,733z"/>
<path class="st0" d="M739,701.8V733h-31.7c0.1-2.2,1.3-4.4,3.5-6.5l21.1-21.1C734.3,703,736.6,701.8,739,701.8z"/>
<path class="st0" d="M6.7,664.8c-0.5,0.6-1.4,0.8-2.1,0.3c-0.1-0.1-0.2-0.2-0.3-0.3l-3.5-3.6c-0.6-0.5-0.8-1.4-0.3-2.1
	c0.1-0.1,0.2-0.2,0.3-0.3l3.5-3.5c0.5-0.6,1.4-0.8,2.1-0.3c0.1,0.1,0.2,0.2,0.3,0.3l3.5,3.5c0.6,0.5,0.8,1.4,0.3,2.1
	c-0.1,0.1-0.2,0.2-0.3,0.3L6.7,664.8z"/>
<path class="st0" d="M80.6,667.2c-1.2,1.2-2.3,1.2-3.5,0l-5.3-5.3c-1.2-1.2-1.2-2.3,0-3.5l5.3-5.2c1.2-1.2,2.3-1.2,3.5,0l5.3,5.3
	c1.2,1.2,1.2,2.3,0,3.5L80.6,667.2z"/>
<path class="st0" d="M154.5,669.5c-1.6,1.6-3.1,1.6-4.7,0l-7-7c-1.6-1.6-1.6-3.1,0-4.7l7-7c1.6-1.6,3.1-1.6,4.7,0l7,7
	c1.6,1.6,1.6,3.1,0,4.7L154.5,669.5z"/>
<path class="st0" d="M228.5,671.9c-2,2-3.9,2-5.9,0l-8.8-8.8c-2-2-2-3.9,0-5.9l8.8-8.8c2-2,3.9-2,5.9,0l8.8,8.8c2,2,2,3.9,0,5.9
	L228.5,671.9z"/>
<path class="st0" d="M302.4,674.2c-2.3,2.3-4.7,2.3-7,0l-10.6-10.6c-2.3-2.4-2.3-4.7,0-7l10.6-10.6c2.3-2.3,4.7-2.3,7,0l10.6,10.6
	c2.3,2.3,2.3,4.7,0,7L302.4,674.2z"/>
<path class="st0" d="M376.3,676.6c-2.7,2.7-5.5,2.7-8.2,0l-12.3-12.3c-2.7-2.7-2.7-5.5,0-8.2l12.3-12.3c2.7-2.7,5.5-2.7,8.2,0
	l12.4,12.3c2.7,2.7,2.7,5.5,0,8.2L376.3,676.6z"/>
<path class="st0" d="M450.3,678.9c-3.1,3.1-6.3,3.1-9.4,0l-14.1-14.1c-3.1-3.1-3.1-6.3,0-9.4l14.1-14.1c3.1-3.1,6.3-3.1,9.4,0
	l14.1,14.1c3.1,3.1,3.1,6.3,0,9.4L450.3,678.9z"/>
<path class="st0" d="M524.2,681.3c-3.5,3.5-7.1,3.5-10.6,0l-15.8-15.8c-3.5-3.5-3.5-7.1,0-10.6l15.8-15.8c3.5-3.5,7.1-3.5,10.6,0
	l15.8,15.8c3.5,3.5,3.5,7.1,0,10.6L524.2,681.3z"/>
<path class="st0" d="M598.1,683.6c-3.9,3.9-7.8,3.9-11.7,0L568.8,666c-3.9-3.9-3.9-7.8,0-11.7l17.6-17.6c3.9-3.9,7.8-3.9,11.7,0
	l17.6,17.6c3.9,3.9,3.9,7.8,0,11.7L598.1,683.6z"/>
<path class="st0" d="M672.1,686c-4.3,4.3-8.6,4.3-12.9,0l-19.4-19.4c-4.3-4.3-4.3-8.6,0-12.9l19.4-19.4c4.3-4.3,8.6-4.3,12.9,0
	l19.4,19.4c4.3,4.3,4.3,8.6,0,12.9L672.1,686z"/>
<path class="st0" d="M739,628.4v63.4c-2.3,0-4.7-1.2-7.1-3.5l-21.1-21.1c-4.7-4.7-4.7-9.4,0-14.1l21.1-21.2
	C734.3,629.6,736.7,628.4,739,628.4z"/>
<path class="st0" d="M80.6,593.8c-1.2,1.2-2.3,1.2-3.5,0l-5.3-5.3c-1.2-1.2-1.2-2.3,0-3.5l5.3-5.3c1.2-1.2,2.3-1.2,3.5,0l5.3,5.3
	c1.2,1.2,1.2,2.3,0,3.5L80.6,593.8z"/>
<path class="st0" d="M154.5,596.2c-1.6,1.6-3.1,1.6-4.7,0l-7-7c-1.6-1.6-1.6-3.1,0-4.7l7-7c1.6-1.6,3.1-1.6,4.7,0l7,7
	c1.6,1.6,1.6,3.1,0,4.7L154.5,596.2z"/>
<path class="st0" d="M228.5,598.6c-2,2-3.9,2-5.9,0l-8.8-8.8c-2-2-2-3.9,0-5.9l8.8-8.8c2-2,3.9-2,5.9,0l8.8,8.8c2,2,2,3.9,0,5.9
	L228.5,598.6z"/>
<path class="st0" d="M376.3,603.2c-2.7,2.7-5.5,2.7-8.2,0l-12.3-12.3c-2.7-2.7-2.7-5.5,0-8.2l12.3-12.3c2.7-2.7,5.5-2.7,8.2,0
	l12.4,12.3c2.7,2.7,2.7,5.5,0,8.2L376.3,603.2z"/>
<path class="st0" d="M450.3,605.6c-3.1,3.1-6.3,3.1-9.4,0l-14.1-14.1c-3.1-3.1-3.1-6.3,0-9.4l14.1-14.1c3.1-3.1,6.3-3.1,9.4,0
	l14.1,14.1c3.1,3.1,3.1,6.3,0,9.4L450.3,605.6z"/>
<path class="st0" d="M524.2,607.9c-3.5,3.5-7.1,3.5-10.6,0l-15.8-15.8c-3.5-3.5-3.5-7.1,0-10.6l15.8-15.8c3.5-3.5,7.1-3.5,10.6,0
	l15.8,15.8c3.5,3.5,3.5,7.1,0,10.6L524.2,607.9z"/>
<path class="st0" d="M598.1,610.3c-3.9,3.9-7.8,3.9-11.7,0l-17.6-17.6c-3.9-3.9-3.9-7.8,0-11.7l17.6-17.6c3.9-3.9,7.8-3.9,11.7,0
	l17.6,17.6c3.9,3.9,3.9,7.8,0,11.7L598.1,610.3z"/>
<path class="st0" d="M672.1,612.6c-4.3,4.3-8.6,4.3-12.9,0l-19.4-19.4c-4.3-4.3-4.3-8.6,0-12.9l19.4-19.4c4.3-4.3,8.6-4.3,12.9,0
	l19.4,19.4c4.3,4.3,4.3,8.6,0,12.9L672.1,612.6z"/>
<path class="st0" d="M739,555.1v63.4c-2.3,0-4.7-1.2-7.1-3.5l-21.1-21.1c-4.7-4.7-4.7-9.4,0-14.1l21.1-21.1
	C734.3,556.3,736.7,555.1,739,555.1z"/>
<path class="st0" d="M6.7,518.1c-0.5,0.6-1.4,0.8-2.1,0.3c-0.1-0.1-0.2-0.2-0.3-0.3l-3.5-3.5c-0.6-0.5-0.8-1.4-0.3-2.1
	c0.1-0.1,0.2-0.2,0.3-0.3l3.5-3.5c0.5-0.6,1.4-0.8,2.1-0.3c0.1,0.1,0.2,0.2,0.3,0.3l3.5,3.5c0.6,0.5,0.8,1.4,0.3,2.1
	c-0.1,0.1-0.2,0.2-0.3,0.3L6.7,518.1z"/>
<path class="st0" d="M80.6,520.5c-1.2,1.2-2.3,1.2-3.5,0l-5.3-5.3c-1.2-1.2-1.2-2.3,0-3.5l5.3-5.3c1.2-1.2,2.3-1.2,3.5,0l5.3,5.3
	c1.2,1.2,1.2,2.3,0,3.5L80.6,520.5z"/>
<path class="st0" d="M154.5,522.8c-1.6,1.6-3.1,1.6-4.7,0l-7-7c-1.6-1.6-1.6-3.1,0-4.7l7-7c1.6-1.6,3.1-1.6,4.7,0l7,7
	c1.6,1.6,1.6,3.1,0,4.7L154.5,522.8z"/>
<path class="st0" d="M228.5,525.2c-2,2-3.9,2-5.9,0l-8.8-8.8c-2-2-2-3.9,0-5.9l8.8-8.8c2-2,3.9-2,5.9,0l8.8,8.8c2,2,2,3.9,0,5.9
	L228.5,525.2z"/>
<path class="st0" d="M450.3,532.2c-3.1,3.1-6.3,3.1-9.4,0l-14.1-14.1c-3.1-3.1-3.1-6.3,0-9.4l14.1-14.1c3.1-3.1,6.3-3.1,9.4,0
	l14.1,14.1c3.1,3.1,3.1,6.3,0,9.4L450.3,532.2z"/>
<path class="st0" d="M598.1,536.9c-3.9,3.9-7.8,3.9-11.7,0l-17.6-17.6c-3.9-3.9-3.9-7.8,0-11.7l17.6-17.6c3.9-3.9,7.8-3.9,11.7,0
	l17.6,17.6c3.9,3.9,3.9,7.8,0,11.7L598.1,536.9z"/>
<path class="st0" d="M672.1,539.3c-4.3,4.3-8.6,4.3-12.9,0l-19.4-19.4c-4.3-4.3-4.3-8.6,0-12.9l19.4-19.4c4.3-4.3,8.6-4.3,12.9,0
	l19.4,19.4c4.3,4.3,4.3,8.6,0,12.9L672.1,539.3z"/>
<path class="st0" d="M739,481.8v63.4c-2.3,0-4.7-1.2-7.1-3.5l-21.1-21.1c-4.7-4.7-4.7-9.4,0-14.1l21.1-21.1
	C734.3,482.9,736.7,481.8,739,481.8z"/>
<path class="st0" d="M6.7,444.8c-0.5,0.6-1.4,0.8-2.1,0.3c-0.1-0.1-0.2-0.2-0.3-0.3l-3.5-3.5c-0.6-0.5-0.8-1.4-0.3-2.1
	c0.1-0.1,0.2-0.2,0.3-0.3l3.5-3.5c0.5-0.6,1.4-0.8,2.1-0.3c0.1,0.1,0.2,0.2,0.3,0.3l3.5,3.5c0.6,0.5,0.8,1.4,0.3,2.1
	c-0.1,0.1-0.2,0.2-0.3,0.3L6.7,444.8z"/>
<path class="st0" d="M228.5,451.8c-2,2-3.9,2-5.9,0l-8.8-8.8c-2-2-2-3.9,0-5.9l8.8-8.8c2-2,3.9-2,5.9,0l8.8,8.8c2,2,2,3.9,0,5.9
	L228.5,451.8z"/>
<path class="st0" d="M302.4,454.2c-2.3,2.3-4.7,2.3-7,0l-10.6-10.6c-2.3-2.3-2.3-4.7,0-7l10.6-10.6c2.3-2.3,4.7-2.3,7,0l10.6,10.6
	c2.3,2.4,2.3,4.7,0,7L302.4,454.2z"/>
<path class="st0" d="M376.3,456.5c-2.7,2.7-5.5,2.7-8.2,0l-12.3-12.3c-2.7-2.7-2.7-5.5,0-8.2l12.3-12.3c2.7-2.7,5.5-2.7,8.2,0
	l12.4,12.3c2.7,2.7,2.7,5.5,0,8.2L376.3,456.5z"/>
<path class="st0" d="M450.3,458.9c-3.1,3.1-6.3,3.1-9.4,0l-14.1-14.1c-3.1-3.1-3.1-6.3,0-9.4l14.1-14.1c3.1-3.1,6.3-3.1,9.4,0
	l14.1,14.1c3.1,3.1,3.1,6.3,0,9.4L450.3,458.9z"/>
<path class="st0" d="M598.1,463.6c-3.9,3.9-7.8,3.9-11.7,0L568.8,446c-3.9-3.9-3.9-7.8,0-11.7l17.6-17.6c3.9-3.9,7.8-3.9,11.7,0
	l17.6,17.6c3.9,3.9,3.9,7.8,0,11.7L598.1,463.6z"/>
<path class="st0" d="M672.1,465.9c-4.3,4.3-8.6,4.3-12.9,0l-19.4-19.4c-4.3-4.3-4.3-8.6,0-12.9l19.4-19.4c4.3-4.3,8.6-4.3,12.9,0
	l19.4,19.4c4.3,4.3,4.3,8.6,0,12.9L672.1,465.9z"/>
<path class="st0" d="M739,408.4v63.3c-2.3,0-4.7-1.2-7.1-3.5l-21.1-21.1c-4.7-4.7-4.7-9.4,0-14.1l21.1-21.1
	C734.3,409.6,736.7,408.4,739,408.4z"/>
<path class="st0" d="M80.6,373.8c-1.2,1.2-2.3,1.2-3.5,0l-5.3-5.3c-1.2-1.2-1.2-2.3,0-3.5l5.3-5.3c1.2-1.2,2.3-1.2,3.5,0l5.3,5.3
	c1.2,1.2,1.2,2.3,0,3.5L80.6,373.8z"/>
<path class="st0" d="M154.5,376.1c-1.6,1.6-3.1,1.6-4.7,0l-7-7c-1.6-1.6-1.6-3.1,0-4.7l7-7c1.6-1.6,3.1-1.6,4.7,0l7,7
	c1.6,1.6,1.6,3.1,0,4.7L154.5,376.1z"/>
<path class="st0" d="M302.4,380.8c-2.3,2.3-4.7,2.3-7,0l-10.6-10.6c-2.3-2.3-2.3-4.7,0-7l10.6-10.6c2.3-2.3,4.7-2.3,7,0l10.6,10.6
	c2.3,2.3,2.3,4.7,0,7L302.4,380.8z"/>
<path class="st0" d="M524.2,387.9c-3.5,3.5-7.1,3.5-10.6,0L497.8,372c-3.5-3.5-3.5-7.1,0-10.6l15.8-15.8c3.5-3.5,7.1-3.5,10.6,0
	l15.8,15.8c3.5,3.5,3.5,7.1,0,10.6L524.2,387.9z"/>
<path class="st0" d="M598.1,390.2c-3.9,3.9-7.8,3.9-11.7,0l-17.6-17.6c-3.9-3.9-3.9-7.8,0-11.7l17.6-17.6c3.9-3.9,7.8-3.9,11.7,0
	l17.6,17.6c3.9,3.9,3.9,7.8,0,11.7L598.1,390.2z"/>
<path class="st0" d="M672.1,392.6c-4.3,4.3-8.6,4.3-12.9,0l-19.4-19.4c-4.3-4.3-4.3-8.6,0-12.9l19.4-19.4c4.3-4.3,8.6-4.3,12.9,0
	l19.4,19.4c4.3,4.3,4.3,8.6,0,12.9L672.1,392.6z"/>
<path class="st0" d="M739,335.1v63.4c-2.3,0-4.7-1.2-7.1-3.5l-21.1-21.1c-4.7-4.7-4.7-9.4,0-14.1l21.1-21.1
	C734.3,336.2,736.7,335,739,335.1z"/>
<path class="st0" d="M154.5,302.8c-1.6,1.6-3.1,1.6-4.7,0l-7-7c-1.6-1.6-1.6-3.1,0-4.7l7-7c1.6-1.6,3.1-1.6,4.7,0l7,7
	c1.6,1.6,1.6,3.1,0,4.7L154.5,302.8z"/>
<path class="st0" d="M228.5,305.1c-2,2-3.9,2-5.9,0l-8.8-8.8c-2-2-2-3.9,0-5.9l8.8-8.8c2-2,3.9-2,5.9,0l8.8,8.8c2,2,2,3.9,0,5.9
	L228.5,305.1z"/>
<path class="st0" d="M376.3,309.8c-2.7,2.7-5.5,2.7-8.2,0l-12.3-12.3c-2.7-2.7-2.7-5.5,0-8.2l12.3-12.3c2.7-2.7,5.5-2.7,8.2,0
	l12.4,12.3c2.7,2.7,2.7,5.5,0,8.2L376.3,309.8z"/>
<path class="st0" d="M524.2,314.5c-3.5,3.5-7.1,3.5-10.6,0l-15.8-15.8c-3.5-3.5-3.5-7.1,0-10.6l15.8-15.8c3.5-3.5,7.1-3.5,10.6,0
	l15.8,15.8c3.5,3.5,3.5,7.1,0,10.6L524.2,314.5z"/>
<path class="st0" d="M672.1,319.2c-4.3,4.3-8.6,4.3-12.9,0l-19.4-19.4c-4.3-4.3-4.3-8.6,0-12.9l19.4-19.4c4.3-4.3,8.6-4.3,12.9,0
	l19.4,19.4c4.3,4.3,4.3,8.6,0,12.9L672.1,319.2z"/>
<path class="st0" d="M739,261.7v63.4c-2.3,0-4.7-1.2-7.1-3.5l-21.1-21.1c-4.7-4.7-4.7-9.4,0-14.1l21.1-21.1
	C734.3,262.9,736.7,261.7,739,261.7z"/>
<path class="st0" d="M80.6,227.1c-1.2,1.2-2.3,1.2-3.5,0l-5.3-5.3c-1.2-1.2-1.2-2.3,0-3.5l5.3-5.3c1.2-1.2,2.3-1.2,3.5,0l5.3,5.3
	c1.2,1.2,1.2,2.4,0,3.5L80.6,227.1z"/>
<path class="st0" d="M228.5,231.8c-2,2-3.9,2-5.9,0l-8.8-8.8c-2-2-2-3.9,0-5.9l8.8-8.8c2-2,3.9-2,5.9,0l8.8,8.8c2,2,2,3.9,0,5.9
	L228.5,231.8z"/>
<path class="st0" d="M376.3,236.5c-2.7,2.7-5.5,2.7-8.2,0l-12.3-12.3c-2.7-2.7-2.7-5.5,0-8.2l12.3-12.3c2.7-2.7,5.5-2.7,8.2,0
	l12.4,12.3c2.7,2.7,2.7,5.5,0,8.2L376.3,236.5z"/>
<path class="st0" d="M524.2,241.2c-3.5,3.5-7.1,3.5-10.6,0l-15.8-15.8c-3.5-3.5-3.5-7.1,0-10.6l15.8-15.8c3.5-3.5,7.1-3.5,10.6,0
	l15.8,15.9c3.5,3.5,3.5,7.1,0,10.6L524.2,241.2z"/>
<path class="st0" d="M598.1,243.5c-3.9,3.9-7.8,3.9-11.7,0l-17.6-17.6c-3.9-3.9-3.9-7.8,0-11.7l17.6-17.6c3.9-3.9,7.8-3.9,11.7,0
	l17.6,17.6c3.9,3.9,3.9,7.8,0,11.7L598.1,243.5z"/>
<path class="st0" d="M672.1,245.9c-4.3,4.3-8.6,4.3-12.9,0l-19.4-19.4c-4.3-4.3-4.3-8.6,0-12.9l19.4-19.4c4.3-4.3,8.6-4.3,12.9,0
	l19.4,19.4c4.3,4.3,4.3,8.6,0,12.9L672.1,245.9z"/>
<path class="st0" d="M739,188.4v63.4c-2.3,0-4.7-1.2-7.1-3.5l-21.1-21.1c-4.7-4.7-4.7-9.4,0-14.1l21.1-21.1
	C734.3,189.5,736.7,188.4,739,188.4z"/>
<path class="st0" d="M524.2,167.8c-3.5,3.5-7.1,3.5-10.6,0L497.8,152c-3.5-3.5-3.5-7.1,0-10.6l15.8-15.8c3.5-3.5,7.1-3.5,10.6,0
	l15.8,15.9c3.5,3.5,3.5,7.1,0,10.6L524.2,167.8z"/>
<path class="st0" d="M598.1,170.2c-3.9,3.9-7.8,3.9-11.7,0l-17.6-17.6c-3.9-3.9-3.9-7.8,0-11.7l17.6-17.6c3.9-3.9,7.8-3.9,11.7,0
	l17.6,17.6c3.9,3.9,3.9,7.8,0,11.7L598.1,170.2z"/>
<path class="st0" d="M739,115v63.4c-2.3,0-4.7-1.2-7.1-3.5l-21.1-21.1c-4.7-4.7-4.7-9.4,0-14.1l21.1-21.1
	C734.3,116.2,736.7,115,739,115z"/>
<path class="st0" d="M739,41.7v63.4c-2.3,0-4.7-1.2-7.1-3.5l-21.1-21.1c-4.7-4.7-4.7-9.4,0-14.1l21.1-21.1
	C734.3,42.8,736.7,41.7,739,41.7z"/>
<path class="st0" d="M694.7,0c0,2.2-1.1,4.3-3.2,6.5l-19.4,19.4c-4.3,4.3-8.6,4.3-12.9,0L639.8,6.5c-2.1-2.2-3.2-4.3-3.2-6.5H694.7z
	"/>
<path class="st0" d="M739,0v31.7c-2.4,0-4.7-1.2-7.1-3.5L710.8,7c-2.3-2.3-3.5-4.7-3.5-7H739z"/>
</svg>
